# xmcd
# 
# Track frame offsets:
#     150
#     16132
#     27227
#     38762
#     57412
#     68890
#     87770
#     107317
#     127337
#     146417
#     155692
#     175412
#     193520
#     207937
#     220047
#     239172
#     255187
#     273970
#     294122
#     311750
#     329002
# 
# Disc length: 4581
# 
# Revision: 7
# Processed by: cddbd v1.5.2PL0 Copyright (c) Steve Scherf et al.
# Submitted via: fre:ac v1.0.17
# 
DISCID=3111e315
DTITLE=Various Artist - Country Legends [CD1]
DYEAR=2002
DGENRE=Country
TTITLE0=Willie Nelson - Always On My Mind
TTITLE1=Roy Orbison - Blue Bayou
TTITLE2=Bobby Gentry And Glen Campbell - All I Have To Do Is Dream
TTITLE3=LeAnn Rimes - How Do I Live
TTITLE4=Eva Cassidy - Tennessee Waltz
TTITLE5=Nanci Griffith - From A Distance
TTITLE6=Alison Krauss And Union Station - When You Say Nothing At All
TTITLE7=Lonestar - Amazed
TTITLE8=The Soggy Bottom Boys With Dan Tyminski - I Am A Man Of Constant Sorrow
TTITLE9=Johnnie Allan - The Promised Land
TTITLE10=The Mavericks - Dance The Night Away
TTITLE11=Billy Swan - I Can Help
TTITLE12=Bellamy Brothers - If I Said You Have A Beautiful Body
TTITLE13=Glen Campbell - Galveston
TTITLE14=Bobbie Gentry - Ode To Billy Joe
TTITLE15=Joe South - Games People Play
TTITLE16=Juice Newton - Angel Of The Morning
TTITLE17=Tim McGraw - Please Remember Me
TTITLE18=The Judds - Love Can Build A Bridge
TTITLE19=Don McLean - Crying
TTITLE20=Dr. Hook - A Little Bit More
EXTD=YEAR: 2002
EXTT0=
EXTT1=
EXTT2=
EXTT3=
EXTT4=
EXTT5=
EXTT6=
EXTT7=
EXTT8=
EXTT9=
EXTT10=
EXTT11=
EXTT12=
EXTT13=
EXTT14=
EXTT15=
EXTT16=
EXTT17=
EXTT18=
EXTT19=
EXTT20=
PLAYORDER=
